<svg width="40" height="40" viewBox="0 0 40 40" fill="none" xmlns="http://www.w3.org/2000/svg">
<rect width="40" height="40" rx="8" fill="#C00000"/>
<path d="M21.75 15.3125V10H13.9375C13.418 10 13 10.418 13 10.9375V29.0625C13 29.582 13.418 30 13.9375 30H27.0625C27.582 30 28 29.582 28 29.0625V16.25H22.6875C22.1719 16.25 21.75 15.8281 21.75 15.3125ZM18 20.9375C18 21.1102 17.8602 21.25 17.6875 21.25H17.375C17.0297 21.25 16.75 21.5297 16.75 21.875V23.125C16.75 23.4703 17.0297 23.75 17.375 23.75H17.6875C17.8602 23.75 18 23.8898 18 24.0625V24.6875C18 24.8602 17.8602 25 17.6875 25H17.375C16.3395 25 15.5 24.1605 15.5 23.125V21.875C15.5 20.8395 16.3395 20 17.375 20H17.6875C17.8602 20 18 20.1398 18 20.3125V20.9375ZM19.7293 25H19.25C19.0773 25 18.9375 24.8602 18.9375 24.6875V24.0625C18.9375 23.8898 19.0773 23.75 19.25 23.75H19.7293C19.9617 23.75 20.1359 23.6133 20.1359 23.4914C20.1359 23.4406 20.1066 23.3875 20.0531 23.3414L19.198 22.6082C18.8672 22.3262 18.6773 21.9254 18.6773 21.509C18.6773 20.677 19.4203 20.0004 20.334 20.0004H20.8125C20.9852 20.0004 21.125 20.1402 21.125 20.3129V20.9379C21.125 21.1105 20.9852 21.2504 20.8125 21.2504H20.3332C20.1008 21.2504 19.9266 21.3871 19.9266 21.509C19.9266 21.5598 19.9559 21.6129 20.0094 21.659L20.8645 22.3922C21.1953 22.6742 21.3852 23.075 21.3852 23.4914C21.3855 24.323 20.643 25 19.7293 25ZM23 20.3125V21.125C23 21.9168 23.2227 22.6941 23.625 23.3469C24.0273 22.6945 24.25 21.9168 24.25 21.125V20.3125C24.25 20.1398 24.3898 20 24.5625 20H25.1875C25.3602 20 25.5 20.1398 25.5 20.3125V21.125C25.5 22.5109 24.9969 23.816 24.0828 24.8004C23.9648 24.9273 23.7988 25 23.625 25C23.4512 25 23.2852 24.9273 23.1672 24.8004C22.2531 23.816 21.75 22.5109 21.75 21.125V20.3125C21.75 20.1398 21.8898 20 22.0625 20H22.6875C22.8602 20 23 20.1398 23 20.3125ZM27.7266 14.1016L23.9023 10.2734C23.7266 10.0977 23.4883 10 23.2383 10H23V15H28V14.7617C28 14.5156 27.9023 14.2773 27.7266 14.1016Z" fill="white"/>
</svg>
